<svg version="1.1" xmlns="http://www.w3.org/2000/svg" xmlns:xlink="http://www.w3.org/1999/xlink" x="0px" y="0px" width="168px" height="67px" viewBox="0 0 168 67" enable-background="new 0 0 168 67" xml:space="preserve">
<g>
	<path fill="#444444" d="M0,47.857l3.332-0.637v-1.672c0-4.461,3.03-7.833,7.868-7.885c1.836-0.013,6.427,0.515,8.132,1.143v2.649
		c-0.038,0-6.721-0.281-6.721-0.281c-2.215-0.098-4.932,0.667-4.932,4.504v1.541l13.201,0.375V67.12h-4.372V50.781h-8.83V67.12
		H3.332V50.781H0V47.857z"/>
	<path fill="#444444" d="M24.51,47.221h3.522l0.825,2.511c1.708-1.325,3.639-2.723,6.332-2.723c0.942,0,1.917,0.049,2.419,0.26
		v4.218c-0.502-0.073-1.726-0.146-2.839-0.146c-2.474,0-4.036,0.512-5.912,2.2V67.12H24.51V47.221z"/>
	<path fill="#444444" d="M47.873,47.071c5.366,0,8.132,0.581,8.132,7.176c0,3.306-1.799,4.834-5.396,4.834h-7.083
		c0,3.989,1.176,4.548,4.047,4.548c3.185,0,5.247,0.024,8.057-0.388v3.017c-2.892,0.98-6.783,1.049-9.894,1.049
		c-5.059,0-6.558-2.751-6.558-10.231C39.178,48.405,41.622,47.071,47.873,47.071z M49.742,55.69c1.295,0,1.915-0.56,1.915-1.613
		c0-3.03-0.5-3.446-3.577-3.446c-3.303,0-4.581,0.116-4.555,5.059H49.742z"/>
	<path fill="#444444" d="M58.944,51.917c0-3.073,1.312-4.883,5.171-4.883c1.949,0,7.451,0.323,9.399,0.51v1.588h-9.399
		c-2.653,0-3.035,1.026-3.035,2.785v1.724c0,2.456,1.165,2.519,3.035,2.519h5.539c3.121,0,4.872,1.833,4.872,4.643v1.836
		c0,4.084-2.474,4.669-4.872,4.669c-1.836,0-8.462-0.448-9.886-0.598v-1.539h9.886c0.599,0,2.736,0.136,2.736-2.533v-1.836
		c0-1.49-0.743-2.507-2.736-2.507h-5.539c-3.522,0-5.171-0.794-5.171-4.654V51.917z"/>
	<path fill="#444444" d="M78.707,37.739h2.136v11.805c2.248-1.35,4.564-2.661,7.6-2.661c3.972,0,6.146,3.073,6.146,6.371V67.12
		h-2.136V53.254c0-2.703-1.59-4.234-4.01-4.234c-3.1,0-4.753,0.762-7.6,2.187V67.12h-2.136V37.739z"/>
	<path fill="#444444" d="M106.692,47.071c4.634,0,7.595,0.45,7.595,7.045c0,2.911-1.651,4.253-5.122,4.253h-8.649
		c0,5.666,1.371,6.802,4.409,6.802c3.448,0,6.177-0.09,8.987-0.502v1.589c-3.036,0.862-5.876,1.062-8.987,1.049
		c-5.072-0.025-6.546-2.589-6.546-10.231C98.379,48.233,100.75,47.071,106.692,47.071z M109.166,56.271
		c1.802,0,2.985-0.447,2.985-2.155c0-4.508-1.259-4.91-5.434-4.91c-4.567,0-6.201,0.407-6.201,7.064H109.166z"/>
	<path fill="#444444" d="M118.467,37.776h2.136v22.261c0,4.152,1.359,4.698,2.583,4.947c0,0,2.882,0.66,3.144,0.66v1.477h-3.03
		c-2.975,0-4.833-1.914-4.833-7.083V37.776z"/>
	<path fill="#444444" d="M129.671,37.776h2.136v22.261c0,4.152,1.359,4.698,2.582,4.947c0,0,2.882,0.66,3.145,0.66v1.477h-3.031
		c-2.975,0-4.832-1.914-4.832-7.083V37.776z"/>
</g>
<g>
	<path fill="#444444" d="M152.58,66.614c-4.262-6.448,1.598-13.57,3.62-16.833c1.488-2.401,7.232-12.149-2.967-23.464
		c1.02,3.066,0.741,6.589,0,8.722c-0.928,2.782-1.843,4.512-3.524,7.417c-1.673,2.894-4.265,6.026-5.1,9.271
		c-1.39,5.563-0.5,12.175,5.564,15.392c-3.325-0.557-17.524-8.345-10.709-23.803c2.565-5.818,5.916-10.025,3.958-14.766
		c3.448,2.143,3.299,5.377,3.299,8.159c1.552-1.423,2.308-3.599,2.196-5.824c-0.112-2.67-0.878-5.239-1.375-7.759
		c-0.672-3.405-1.141-5.245-1.364-8.249c-0.223-2.892,0.248-5.898,1.138-8.68c0.779-2.114,1.893-4.149,3.91-6.198
		c-1.996,3.455-1.831,5.558-1.386,9.008c0.334,2.67,1.792,5.98,3.54,8.99c1.7,2.926,3.591,5.893,5.482,8.785
		c1.892,3.116,3.672,6.564,3.895,10.237c0.222,5.118-1.39,9.333-3.783,14.13v0.111c0.796-2.131,4.482-5.608,8.567-3.449
		c-3.064,0.552-4.661,3.541-5.229,6.787C160.928,62.484,155.297,66.149,152.58,66.614z"/>
</g>
</svg>
